<svg width="56" height="86" viewBox="0 0 56 86" fill="none" xmlns="http://www.w3.org/2000/svg">
<path d="M45.2717 0L35.5632 27.1112H30.1687L39.8488 0.0221431V0H45.2717Z" fill="#9871F3"/>
<path d="M39.849 0V0.0221431L30.1689 27.1112H24.8423L34.5223 0.0221431V0H39.849Z" fill="#F0F0F0"/>
<path d="M34.5219 6.10352e-05V0.0222042L24.8419 27.1113H19.4001L29.1086 6.10352e-05H34.5219Z" fill="#6F9DE2"/>
<path d="M39.3552 27.515C40.0682 29.105 40.464 30.8163 40.5272 32.553C36.7116 30.6034 32.3881 29.504 27.8092 29.504C22.9746 29.504 18.4272 30.7296 14.4602 32.8842C14.4807 31.034 14.8829 29.2058 15.6401 27.5149L15.9934 26.7278C16.3877 25.8461 17.208 25.2294 18.1654 25.0953L19.208 24.9486C24.7066 24.1789 30.2888 24.1789 35.7889 24.9486L36.83 25.0953C37.7874 25.2294 38.6076 25.8461 39.002 26.7278L39.3552 27.515ZM36.5491 28.2894V27.2547C36.5491 26.955 36.3062 26.7121 36.0065 26.7121H18.9887C18.689 26.7121 18.4461 26.9551 18.4461 27.2547V28.2894C18.4461 28.5906 18.689 28.8336 18.9887 28.8336H36.0065C36.3062 28.8336 36.5491 28.5907 36.5491 28.2894Z" fill="#FDBC62"/>
<path d="M9.69043 6.10352e-05L19.3989 27.1113H24.7933L15.1133 0.0222042V6.10352e-05H9.69043Z" fill="#6F9DE2"/>
<path d="M15.1143 6.10352e-05V0.0222042L24.7943 27.1113H30.121L20.4409 0.0222042V6.10352e-05H15.1143Z" fill="#F0F0F0"/>
<path d="M20.4404 6.10352e-05V0.0222042L30.1206 27.1113H35.5624L25.8539 6.10352e-05H20.4404Z" fill="#9871F3"/>
<path d="M40.7172 32.5531C49.7885 37.1841 56 46.6181 56 57.5032C56 72.9674 43.4633 85.504 27.9993 85.504C12.5351 85.504 0 72.9674 0 57.5032C0 46.8736 5.92291 37.6272 14.6503 32.8842C18.6173 30.7296 23.1647 29.504 27.9993 29.504C32.5782 29.504 36.9017 30.6034 40.7172 32.5531Z" fill="#EDAC55"/>
<path d="M27.9992 83.2726C21.1161 83.2726 14.6453 80.5921 9.77849 75.7249C4.91167 70.8577 2.23145 64.3865 2.23145 57.5033C2.23145 48.0474 7.39803 39.3656 15.7149 34.8457C19.4609 32.8111 23.7088 31.7355 27.9992 31.7355C32.1221 31.7355 36.0597 32.6794 39.7028 34.5409C43.8692 36.6678 47.3839 39.892 49.8674 43.8649C52.4195 47.9476 53.7685 52.6637 53.7685 57.5034C53.7685 64.3865 51.088 70.8577 46.2208 75.7249C41.3535 80.5922 34.8823 83.2726 27.9992 83.2726Z" fill="#FDBC62"/>
<path d="M23.425 33.0073C23.4227 33.009 23.4228 33.0107 23.4207 33.0124C23.3002 33.1203 21.5926 34.6908 20.9227 36.057C20.2266 37.4723 18.0633 38.8908 18.0631 38.8913C18.0593 38.8916 18.1344 36.7248 19.0419 35.7307C20.1244 34.5313 23.3247 33.0515 23.425 33.0073Z" fill="#C49047"/>
<path d="M22.7288 34.1384C22.3423 35.0772 22.118 35.8867 21.5568 36.9253C21.2296 37.5312 19.6749 38.5746 18.7353 38.7999C18.3597 38.9398 18.063 38.8909 18.063 38.8909C18.0633 38.8904 20.2264 37.4719 20.9225 36.0566C21.5924 34.6903 23.2998 33.1199 23.4206 33.012C23.3683 33.0815 22.9313 33.6487 22.7288 34.1384Z" fill="#FFDEAE"/>
<path d="M25.9624 37.4893C25.9596 37.4897 25.9581 37.4909 25.9554 37.4912C25.7862 37.5143 23.356 37.8642 21.807 38.6005C20.2018 39.3648 17.5474 39.3132 17.5474 39.3127C17.5452 39.3122 19.3214 37.6151 20.7399 37.3066C22.4438 36.9326 25.8551 37.4724 25.9624 37.4893Z" fill="#C49047"/>
<path d="M24.5882 38.0317C23.5815 38.5842 22.7886 39.1175 21.5729 39.6481C20.8638 39.9583 18.9351 39.945 18.0935 39.6089C17.7168 39.5147 17.5474 39.3126 17.5474 39.3126C17.5474 39.313 20.202 39.3647 21.807 38.6004C23.3558 37.8641 25.7862 37.5142 25.9554 37.4911C25.8644 37.5195 25.1136 37.7442 24.5882 38.0317Z" fill="#FFDEAE"/>
<path d="M18.1908 36.0876C18.1891 36.0895 18.1893 36.0911 18.1875 36.0931C18.0869 36.2136 16.6769 37.9635 16.2722 39.3859C15.8498 40.8591 13.9639 42.5204 13.9641 42.5209C13.9602 42.5214 13.6076 40.3878 14.3228 39.3009C15.172 37.9907 18.0979 36.1431 18.1908 36.0876Z" fill="#C49047"/>
<path d="M17.7103 37.2821C17.5043 38.2497 17.4365 39.0706 17.0764 40.1585C16.8659 40.7931 15.5139 42.0097 14.6184 42.3478C14.2697 42.532 13.9634 42.521 13.9634 42.521C13.9631 42.5205 15.8493 40.8593 16.2715 39.3861C16.676 37.9637 18.0863 36.2139 18.1868 36.0933C18.1477 36.1678 17.8185 36.7774 17.7103 37.2821Z" fill="#FFDEAE"/>
<path d="M21.5986 40.1662C21.5961 40.1668 21.5946 40.1682 21.592 40.1688C21.4272 40.2122 19.0618 40.8553 17.6551 41.77C16.1984 42.7187 13.5332 42.9992 13.5327 42.999C13.53 42.9985 14.9734 41.1126 16.3347 40.6336C17.9688 40.0542 21.4889 40.1622 21.5986 40.1662Z" fill="#C49047"/>
<path d="M20.3277 40.8679C19.4271 41.5343 18.7372 42.1557 17.6251 42.8272C16.9769 43.2194 15.046 43.446 14.1376 43.2214C13.7424 43.1759 13.5327 42.9989 13.5327 42.9989C13.5333 42.9992 16.1985 42.7187 17.6551 41.77C19.0617 40.8554 21.4272 40.2123 21.592 40.1688C21.5063 40.2079 20.7982 40.5207 20.3277 40.8679Z" fill="#FFDEAE"/>
<path d="M13.3037 39.9898C13.3024 39.9921 13.3031 39.9935 13.302 39.9958C13.2376 40.1306 12.3673 42.0802 12.3995 43.5217C12.4273 45.0149 11.0746 46.9786 11.0758 46.9793C11.0724 46.98 10.0704 45.0047 10.4457 43.8245C10.8833 42.4026 13.227 40.0608 13.3037 39.9898Z" fill="#C49047"/>
<path d="M13.1873 41.2258C13.275 42.1915 13.4554 42.9904 13.4288 44.1033C13.4123 44.7525 12.4476 46.184 11.6683 46.6844C11.381 46.9295 11.0754 46.9793 11.0754 46.9793C11.0746 46.9787 12.4271 45.0149 12.3993 43.5217C12.367 42.0802 13.2374 40.1307 13.3017 39.9958C13.2856 40.0747 13.1423 40.722 13.1873 41.2258Z" fill="#FFDEAE"/>
<path d="M17.896 43.2278C17.8935 43.229 17.8926 43.2306 17.8902 43.2317C17.7403 43.3052 15.5958 44.3826 14.4853 45.5353C13.3354 46.7298 10.7962 47.5224 10.7962 47.5224C10.7921 47.5224 11.6377 45.4301 12.838 44.7043C14.2765 43.8277 17.7869 43.2448 17.896 43.2278Z" fill="#C49047"/>
<path d="M16.8503 44.1485C16.161 44.9633 15.6676 45.6943 14.7749 46.556C14.2547 47.0589 12.4229 47.6541 11.4592 47.6171C11.056 47.651 10.795 47.5227 10.7952 47.5226C10.7959 47.5225 13.335 46.73 14.4849 45.5354C15.5953 44.3827 17.7399 43.3053 17.8898 43.2319C17.8168 43.2859 17.2108 43.7238 16.8503 44.1485Z" fill="#FFDEAE"/>
<path d="M9.77186 44.3561C9.77101 44.3585 9.77209 44.3599 9.77116 44.3622C9.72765 44.5014 9.16287 46.5099 9.42478 47.9317C9.68925 49.405 8.64972 51.4764 8.65104 51.4769C8.64802 51.4778 7.32862 49.6193 7.51543 48.4173C7.72571 46.9702 9.70566 44.4335 9.77186 44.3561Z" fill="#C49047"/>
<path d="M9.85027 45.5881C10.0912 46.5338 10.3983 47.3062 10.5479 48.4091C10.6343 49.0525 9.89572 50.5601 9.19638 51.1292C8.94801 51.399 8.65064 51.4772 8.65064 51.4772C8.64901 51.4767 9.68862 49.4052 9.4243 47.932C9.16239 46.51 9.7274 44.5016 9.77068 44.3624C9.76681 44.4417 9.72539 45.0947 9.85027 45.5881Z" fill="#FFDEAE"/>
<path d="M14.8837 47.1208C14.8813 47.1222 14.881 47.1239 14.8786 47.1252C14.7397 47.2118 12.7606 48.4798 11.832 49.7253C10.8699 51.0157 8.4579 52.0409 8.45705 52.0412C8.45334 52.0413 8.96392 49.8911 10.0512 49.0595C11.3522 48.0556 14.7771 47.1477 14.8837 47.1208Z" fill="#C49047"/>
<path d="M13.9809 48.1301C13.4184 49.0012 13.04 49.7708 12.2833 50.7079C11.8424 51.2548 10.1055 52.0168 9.13608 52.0719C8.73829 52.1437 8.45679 52.0415 8.45679 52.0415C8.45756 52.0412 10.8696 51.016 11.8317 49.7256C12.7601 48.48 14.7394 47.2122 14.8783 47.1255C14.8136 47.1857 14.2749 47.676 13.9809 48.1301Z" fill="#FFDEAE"/>
<path d="M7.09172 49.1218C7.0918 49.1241 7.09281 49.1253 7.09257 49.1277C7.08421 49.2698 7.0311 51.3128 7.65093 52.6569C8.2847 54.0504 7.78448 56.2356 7.78665 56.236C7.78471 56.2369 6.00605 54.6323 5.88419 53.4323C5.72169 51.9888 7.04395 49.2071 7.09172 49.1218Z" fill="#C49047"/>
<path d="M7.48018 50.3076C7.95771 51.1897 8.45669 51.8933 8.8832 52.9447C9.13063 53.5581 8.78193 55.1449 8.2365 55.8105C8.05998 56.1128 7.78615 56.236 7.78615 56.236C7.78383 56.2357 8.28427 54.0505 7.65043 52.657C7.03052 51.3128 7.08379 49.2699 7.09207 49.1277C7.10794 49.2056 7.23174 49.8471 7.48018 50.3076Z" fill="#FFDEAE"/>
<path d="M12.853 51.0073C12.851 51.0089 12.851 51.0106 12.8489 51.0123C12.7328 51.1184 11.0893 52.6648 10.4858 54.0259C9.85935 55.4359 7.7405 56.8161 7.74003 56.8166C7.73616 56.8171 7.69164 54.6386 8.55721 53.6567C9.58915 52.4724 12.7539 51.0498 12.853 51.0073Z" fill="#C49047"/>
<path d="M12.2105 52.1327C11.8715 53.0705 11.69 53.8807 11.1788 54.9141C10.8805 55.517 9.35976 56.5333 8.41755 56.7397C8.04384 56.8724 7.73927 56.8168 7.7395 56.8168C7.73973 56.8164 9.85874 55.4362 10.4853 54.0261C11.0886 52.6649 12.7322 51.1187 12.8484 51.0125C12.7994 51.0814 12.3881 51.6438 12.2105 52.1327Z" fill="#FFDEAE"/>
<path d="M5.56956 54.0343C5.57003 54.0366 5.5715 54.0377 5.57181 54.04C5.59743 54.1799 6.04059 56.1838 6.97978 57.4072C7.94382 58.6762 7.9816 60.8926 7.98462 60.8927C7.98346 60.8935 5.83713 59.585 5.42277 58.4295C4.90808 57.0407 5.54177 54.1246 5.56956 54.0343Z" fill="#C49047"/>
<path d="M6.24251 55.1344C6.92884 55.9255 7.5928 56.5392 8.26837 57.5052C8.66105 58.0688 8.70108 59.6752 8.32559 60.4086C8.22494 60.7311 7.9854 60.8925 7.9854 60.8925C7.98238 60.8924 7.94445 58.676 6.98048 57.407C6.04137 56.1837 5.59814 54.1797 5.57251 54.0398C5.60719 54.1133 5.88506 54.7216 6.24251 55.1344Z" fill="#FFDEAE"/>
<path d="M11.725 55.0209C11.7234 55.0229 11.7237 55.0245 11.7221 55.0265C11.6324 55.1474 10.3762 56.9046 10.1096 58.3276C9.83026 59.8017 8.07893 61.4689 8.07908 61.4695C8.07529 61.4702 7.49959 59.3412 8.11624 58.2515C8.84686 56.9383 11.6362 55.0769 11.725 55.0209Z" fill="#C49047"/>
<path d="M11.3583 56.2179C11.2476 57.1864 11.2628 58.0072 11.0073 59.0958C10.8582 59.7307 9.60534 60.9519 8.7277 61.2938C8.39162 61.4793 8.07837 61.4697 8.07837 61.4697C8.07814 61.4693 9.82947 59.802 10.109 58.3279C10.3756 56.9046 11.6316 55.1479 11.7215 55.0268C11.6893 55.1015 11.4169 55.7127 11.3583 56.2179Z" fill="#FFDEAE"/>
<path d="M5.49902 59.756C5.50034 59.7581 5.50196 59.7589 5.50313 59.761C5.57443 59.8902 6.67202 61.727 7.98818 62.7153C9.34296 63.7415 10.1165 65.8776 10.12 65.8772C10.1196 65.8776 7.61098 65.0497 6.82245 64.0205C5.85849 62.7854 5.50088 59.8481 5.49902 59.756Z" fill="#C49047"/>
<path d="M6.51754 60.6766C7.44628 61.297 8.29357 61.7525 9.2676 62.5467C9.83416 63.0102 10.4049 64.5543 10.287 65.3401C10.2973 65.6724 10.1202 65.8772 10.1202 65.8772C10.1165 65.8776 9.34278 63.7416 7.98822 62.7153C6.67207 61.727 5.57448 59.8901 5.50317 59.761C5.56155 59.8246 6.03358 60.3525 6.51754 60.6766Z" fill="#FFDEAE"/>
<path d="M11.8029 59.4439C11.8021 59.4462 11.8027 59.4475 11.8019 59.4499C11.7532 59.585 11.1105 61.5356 11.3231 62.965C11.5381 64.4463 10.4039 66.4152 10.4052 66.4157C10.4019 66.4167 9.13504 64.4751 9.37016 63.2977C9.63905 61.88 11.7337 59.5158 11.8029 59.4439Z" fill="#C49047"/>
<path d="M11.8389 60.673C12.0489 61.6304 12.3327 62.4204 12.4443 63.5249C12.5085 64.1693 11.7037 65.6047 10.972 66.1135C10.7098 66.3611 10.4048 66.4155 10.4048 66.4155C10.4035 66.4151 11.5375 64.446 11.3228 62.9648C11.1102 61.5352 11.7528 59.5847 11.8016 59.4496C11.795 59.5283 11.7298 60.1736 11.8389 60.673Z" fill="#FFDEAE"/>
<path d="M6.86426 64.6158C6.86565 64.6179 6.86728 64.6186 6.86875 64.6207C6.95027 64.7467 8.19349 66.5376 9.58939 67.4766C11.0268 68.4519 11.9673 70.5528 11.9705 70.5523C11.9704 70.5529 9.39251 69.814 8.52199 68.8165C7.45931 67.6197 6.87324 64.7074 6.86426 64.6158Z" fill="#C49047"/>
<path d="M7.95647 65.4971C8.93592 66.0829 9.82052 66.5071 10.8583 67.2647C11.4622 67.7067 12.1531 69.2251 12.0958 70.0116C12.1316 70.3424 11.97 70.5523 11.97 70.5523C11.9665 70.5527 11.0264 68.4519 9.58881 67.4766C8.19283 66.5375 6.94953 64.7468 6.86816 64.6207C6.93142 64.6819 7.44596 65.1911 7.95647 65.4971Z" fill="#FFDEAE"/>
<path d="M13.1634 64.0876C13.1629 64.0898 13.1636 64.0913 13.163 64.0936C13.1245 64.2297 12.6292 66.1943 12.9524 67.6107C13.2811 69.0787 12.2974 71.0783 12.2986 71.0789C12.2954 71.0799 10.8757 69.1894 11.0204 68.0089C11.1801 66.5879 13.0995 64.1616 13.1634 64.0876Z" fill="#C49047"/>
<path d="M13.2945 65.3106C13.5786 66.2569 13.9235 67.034 14.1201 68.1301C14.2339 68.7697 13.5378 70.2269 12.8442 70.7586C12.6004 71.0143 12.2991 71.0788 12.2991 71.0788C12.2979 71.0782 13.2817 69.0787 12.953 67.6106C12.6297 66.1942 13.1252 64.2297 13.1636 64.0935C13.1627 64.1721 13.1472 64.8168 13.2945 65.3106Z" fill="#FFDEAE"/>
<path d="M9.61377 69.9461C9.61578 69.9479 9.61787 69.948 9.61989 69.9498C9.74415 70.0526 11.5906 71.5012 13.2618 72.1004C14.9863 72.7242 16.6498 74.554 16.6534 74.5531C16.6539 74.5532 13.942 74.4029 12.7455 73.6318C11.2933 72.7085 9.65542 70.0317 9.61377 69.9461Z" fill="#C49047"/>
<path d="M10.9795 70.552C12.1276 70.8989 13.1248 71.1122 14.3887 71.6151C15.1246 71.9087 16.337 73.2265 16.5727 74.0017C16.7289 74.3142 16.6531 74.5534 16.6531 74.5534C16.6497 74.5542 14.986 72.7244 13.2615 72.1006C11.59 71.5014 9.74404 70.0527 9.61963 69.95C9.70255 69.9948 10.3808 70.3705 10.9795 70.552Z" fill="#FFDEAE"/>
<path d="M14.0422 74.7382C14.0447 74.7397 14.0464 74.7395 14.0491 74.7409C14.1962 74.8248 16.3556 75.9974 18.1326 76.3596C19.968 76.7378 22.0343 78.321 22.0373 78.3199C22.0373 78.3199 19.3598 78.5408 18.0037 77.9436C16.3617 77.2298 14.1042 74.8162 14.0422 74.7382Z" fill="#C49047"/>
<path d="M15.5247 75.146C16.7313 75.3292 17.7574 75.4019 19.1134 75.725C19.9033 75.9137 21.4057 77.0503 21.8237 77.7852C22.0519 78.0729 22.0364 78.32 22.0364 78.32C22.0335 78.3209 19.967 76.7378 18.1317 76.3596C16.3548 75.9973 14.1951 74.8247 14.0481 74.7409C14.1403 74.7737 14.8952 75.0498 15.5247 75.146Z" fill="#FFDEAE"/>
<path d="M15.4199 68.0368C15.42 68.0391 15.4214 68.0403 15.4216 68.0426C15.4335 68.1826 15.676 70.1888 16.5016 71.4888C17.3488 72.8371 17.1544 74.9921 17.1569 74.9922C17.1553 74.9933 15.1126 73.4724 14.8147 72.2994C14.4403 70.8895 15.3838 68.1221 15.4199 68.0368Z" fill="#C49047"/>
<path d="M15.9886 69.1891C16.6028 70.041 17.2129 70.7168 17.7993 71.7354C18.1398 72.3298 18.0139 73.8949 17.5548 74.5623C17.4187 74.8636 17.1577 74.9921 17.1577 74.9921C17.1553 74.992 17.3497 72.837 16.5024 71.4887C15.6768 70.1887 15.4344 68.1824 15.4224 68.0425C15.4497 68.1184 15.6688 68.7445 15.9886 69.1891Z" fill="#FFDEAE"/>
<path d="M18.9972 72.4816C18.9977 72.4836 18.9997 72.4843 18.9999 72.4864C19.041 72.6055 19.6898 74.3069 20.6784 75.3288C21.6959 76.3894 21.9992 78.2812 22.0016 78.281C22.0007 78.2816 19.9299 77.2166 19.4174 76.2401C18.7885 75.067 18.9846 72.5598 18.9972 72.4816Z" fill="#C49047"/>
<path d="M19.7364 73.4055C20.4479 74.0643 21.1168 74.5724 21.8388 75.3812C22.2588 75.8531 22.4918 77.2244 22.2463 77.8597C22.1959 78.1375 22.0018 78.2811 22.0018 78.2811C21.9996 78.2813 21.6963 76.3893 20.6787 75.3289C19.6903 74.307 19.0414 72.6057 19.0002 72.4865C19.0405 72.5486 19.3657 73.0614 19.7364 73.4055Z" fill="#FFDEAE"/>
<path d="M31.5613 33.0069C31.5635 33.0086 31.5634 33.0103 31.5655 33.012C31.686 33.1199 33.3936 34.6904 34.0636 36.0567C34.7596 37.4719 36.9229 38.8905 36.9229 38.8905C36.9269 38.8913 36.8518 36.7244 35.9443 35.7303C34.8618 34.5309 31.6615 33.0511 31.5613 33.0069Z" fill="#C49047"/>
<path d="M32.2569 34.1387C32.6434 35.0775 32.8678 35.887 33.4289 36.9256C33.7561 37.5315 35.3109 38.5749 36.2504 38.8002C36.626 38.9401 36.9228 38.8912 36.9228 38.8912C36.9228 38.8912 34.7593 37.4722 34.0632 36.0569C33.3933 34.6906 31.6859 33.1202 31.5652 33.0123C31.6174 33.0818 32.0545 33.649 32.2569 34.1387Z" fill="#FFDEAE"/>
<path d="M29.0232 37.4893C29.026 37.4897 29.0275 37.4908 29.0302 37.4911C29.1993 37.5142 31.6295 37.8641 33.1786 38.6004C34.7838 39.3647 37.4382 39.3131 37.4382 39.3127C37.4404 39.3121 35.6642 37.615 34.2456 37.3066C32.5418 36.9325 29.1304 37.4723 29.0232 37.4893Z" fill="#C49047"/>
<path d="M30.3962 38.0317C31.4029 38.5841 32.1959 39.1174 33.4115 39.648C34.1206 39.9583 36.0494 39.945 36.891 39.6089C37.2675 39.5146 37.4371 39.3126 37.4371 39.3126C37.4371 39.313 34.7825 39.3646 33.1775 38.6003C31.6286 37.864 29.1982 37.5141 29.0291 37.491C29.1201 37.5194 29.8708 37.7441 30.3962 38.0317Z" fill="#FFDEAE"/>
<path d="M36.793 36.0882C36.7947 36.0901 36.7945 36.0918 36.7963 36.0937C36.8969 36.2142 38.3069 37.9641 38.7116 39.3866C39.134 40.8597 41.0199 42.521 41.0197 42.5215C41.0236 42.522 41.3761 40.3884 40.661 39.3015C39.8118 37.9913 36.8859 36.1437 36.793 36.0882Z" fill="#C49047"/>
<path d="M37.2734 37.2824C37.4794 38.25 37.5472 39.0709 37.9073 40.1588C38.1177 40.7934 39.4697 42.01 40.3653 42.3481C40.714 42.5323 41.0203 42.5213 41.0203 42.5213C41.0206 42.5208 39.1344 40.8596 38.7122 39.3864C38.3077 37.964 36.8974 36.2142 36.7969 36.0936C36.8359 36.1681 37.1651 36.7777 37.2734 37.2824Z" fill="#FFDEAE"/>
<path d="M33.3887 40.1666C33.3911 40.1672 33.3927 40.1686 33.3953 40.1692C33.5601 40.2127 35.9255 40.8557 37.3322 41.7705C38.7889 42.7191 41.4541 42.9997 41.4546 42.9994C41.4572 42.999 40.0139 41.1131 38.6527 40.6341C37.0185 40.0547 33.4985 40.1627 33.3887 40.1666Z" fill="#C49047"/>
<path d="M34.6597 40.8682C35.5604 41.5346 36.2502 42.156 37.3624 42.8275C38.0105 43.2197 39.9415 43.4463 40.8499 43.2217C41.245 43.1762 41.4548 42.9992 41.4548 42.9992C41.4542 42.9996 38.789 42.719 37.3323 41.7703C35.9258 40.8557 33.5603 40.2126 33.3955 40.1691C33.4812 40.2082 34.1893 40.521 34.6597 40.8682Z" fill="#FFDEAE"/>
<path d="M41.6824 39.9894C41.6836 39.9916 41.6829 39.9931 41.684 39.9953C41.7483 40.1302 42.6187 42.0797 42.5865 43.5212C42.5588 45.0144 43.9113 46.9782 43.9102 46.9788C43.9136 46.9796 44.9155 45.0042 44.5403 43.824C44.1026 42.4022 41.7589 40.0604 41.6824 39.9894Z" fill="#C49047"/>
<path d="M41.7996 41.2253C41.7118 42.1911 41.5314 42.99 41.5581 44.1029C41.5745 44.7521 42.5393 46.1836 43.3185 46.684C43.6059 46.9291 43.9114 46.9789 43.9114 46.9789C43.9123 46.9782 42.5597 45.0145 42.5875 43.5213C42.6199 42.0798 41.7495 40.1302 41.685 39.9954C41.7014 40.0743 41.8446 40.7216 41.7996 41.2253Z" fill="#FFDEAE"/>
<path d="M37.0908 43.2272C37.0932 43.2283 37.0943 43.2299 37.0966 43.231C37.2464 43.3045 39.3911 44.3819 40.5014 45.5346C41.6514 46.7291 44.1906 47.5218 44.1911 47.5218C44.1947 47.5218 43.3491 45.4295 42.1488 44.7037C40.7102 43.827 37.1999 43.2441 37.0908 43.2272Z" fill="#C49047"/>
<path d="M38.1371 44.1477C38.8265 44.9625 39.3198 45.6935 40.2124 46.5552C40.7326 47.0581 42.5646 47.6533 43.5281 47.6163C43.9313 47.6503 44.1923 47.5219 44.1922 47.5218C44.1916 47.5217 41.6525 46.7292 40.5025 45.5347C39.3921 44.3819 37.2475 43.3046 37.0977 43.2311C37.1707 43.2851 37.7766 43.723 38.1371 44.1477Z" fill="#FFDEAE"/>
<path d="M45.2163 44.3563C45.2172 44.3586 45.2161 44.36 45.2169 44.3623C45.2604 44.5015 45.8253 46.51 45.5633 47.9319C45.2988 49.4052 46.3384 51.4766 46.3371 51.477C46.3401 51.478 47.6595 49.6194 47.4727 48.4174C47.2625 46.9703 45.2825 44.4336 45.2163 44.3563Z" fill="#C49047"/>
<path d="M45.1371 45.5884C44.8962 46.5341 44.5892 47.3066 44.4395 48.4095C44.3531 49.0529 45.0917 50.5605 45.791 51.1296C46.0394 51.3993 46.3368 51.4776 46.3368 51.4776C46.3384 51.4771 45.2988 49.4056 45.5631 47.9324C45.8251 46.5104 45.26 44.502 45.2168 44.3628C45.2206 44.4421 45.2621 45.095 45.1371 45.5884Z" fill="#FFDEAE"/>
<path d="M40.1013 47.1212C40.1037 47.1225 40.104 47.1243 40.1065 47.1256C40.2453 47.2122 42.2245 48.4801 43.1531 49.7257C44.1152 51.0161 46.5272 52.0412 46.528 52.0416C46.5317 52.0416 46.0211 49.8915 44.9338 49.0598C43.6329 48.056 40.2078 47.1481 40.1013 47.1212Z" fill="#C49047"/>
<path d="M41.0035 48.1302C41.566 49.0012 41.9444 49.7709 42.7011 50.708C43.142 51.2549 44.8789 52.0168 45.8484 52.072C46.2462 52.1438 46.5278 52.0415 46.5278 52.0415C46.5269 52.0412 44.1148 51.016 43.1528 49.7256C42.2244 48.4801 40.2451 47.2123 40.1062 47.1255C40.1707 47.1858 40.7095 47.676 41.0035 48.1302Z" fill="#FFDEAE"/>
<path d="M47.8918 49.1216C47.8918 49.124 47.8908 49.1252 47.891 49.1276C47.8993 49.2697 47.9525 51.3127 47.3326 52.6568C46.6989 54.0503 47.1991 56.2354 47.1969 56.2358C47.1989 56.2368 48.9775 54.6321 49.0994 53.4322C49.2619 51.9887 47.9395 49.207 47.8918 49.1216Z" fill="#C49047"/>
<path d="M47.5034 50.3074C47.0258 51.1896 46.5269 51.8932 46.1004 52.9446C45.8528 53.5579 46.2015 55.1448 46.7471 55.8103C46.9235 56.1127 47.1974 56.2359 47.1974 56.2359C47.1997 56.2356 46.6993 54.0503 47.333 52.6568C47.953 51.3127 47.8998 49.2698 47.8915 49.1276C47.8756 49.2055 47.7518 49.847 47.5034 50.3074Z" fill="#FFDEAE"/>
<path d="M42.1306 51.0072C42.1326 51.0088 42.1326 51.0105 42.1346 51.0122C42.2508 51.1184 43.8942 52.6647 44.4978 54.0258C45.1242 55.4358 47.2431 56.8161 47.2436 56.8165C47.2474 56.8171 47.2919 54.6385 46.4264 53.6566C45.3944 52.4723 42.2297 51.0497 42.1306 51.0072Z" fill="#C49047"/>
<path d="M42.7724 52.1323C43.1113 53.0701 43.2928 53.8803 43.8041 54.9137C44.1024 55.5166 45.6232 56.5329 46.5653 56.7393C46.9391 56.872 47.2436 56.8164 47.2436 56.8164C47.2431 56.816 45.1241 55.4358 44.4976 54.0257C43.8943 52.6645 42.2507 51.1183 42.1345 51.0121C42.1836 51.081 42.5949 51.6434 42.7724 52.1323Z" fill="#FFDEAE"/>
<path d="M49.4156 54.0343C49.4151 54.0366 49.4136 54.0377 49.4133 54.04C49.3877 54.1799 48.9445 56.1838 48.0053 57.4072C47.0413 58.6762 47.0035 60.8926 47.0005 60.8927C47.0016 60.8935 49.1479 59.585 49.5623 58.4295C50.077 57.0407 49.4433 54.1246 49.4156 54.0343Z" fill="#C49047"/>
<path d="M48.7433 55.1346C48.057 55.9257 47.3931 56.5393 46.7175 57.5054C46.3248 58.069 46.2848 59.6754 46.6603 60.4088C46.7609 60.7313 47.0004 60.8927 47.0004 60.8927C47.0035 60.8926 47.0413 58.6762 48.0054 57.4072C48.9445 56.1839 49.3877 54.1799 49.4133 54.04C49.3787 54.1135 49.1008 54.7217 48.7433 55.1346Z" fill="#FFDEAE"/>
<path d="M43.2593 55.0206C43.2608 55.0226 43.2605 55.0242 43.2621 55.0262C43.3519 55.1471 44.6081 56.9043 44.8746 58.3273C45.154 59.8014 46.9053 61.4686 46.9052 61.4692C46.9089 61.4698 47.4847 59.3409 46.868 58.2512C46.1373 56.9379 43.348 55.0766 43.2593 55.0206Z" fill="#C49047"/>
<path d="M43.6251 56.217C43.7359 57.1855 43.7206 58.0063 43.9761 59.0949C44.1252 59.7298 45.3781 60.951 46.2557 61.2928C46.5918 61.4783 46.905 61.4688 46.905 61.4688C46.9052 61.4684 45.1539 59.8011 44.8744 58.3269C44.6078 56.9037 43.3518 55.147 43.262 55.0259C43.2941 55.1006 43.5665 55.7118 43.6251 56.217Z" fill="#FFDEAE"/>
<path d="M49.4852 59.7561C49.4839 59.7583 49.4822 59.759 49.4811 59.7611C49.4099 59.8903 48.3122 61.7272 46.996 62.7154C45.6412 63.7416 44.8677 65.8777 44.8643 65.8773C44.8646 65.8778 47.3732 65.0498 48.1617 64.0207C49.1257 62.7855 49.4833 59.8482 49.4852 59.7561Z" fill="#C49047"/>
<path d="M48.4668 60.6766C47.538 61.297 46.6907 61.7525 45.7167 62.5467C45.1501 63.0102 44.5794 64.5543 44.6972 65.3401C44.687 65.6724 44.8641 65.8772 44.8642 65.8772C44.8677 65.8776 45.6415 63.7416 46.996 62.7153C48.3122 61.727 49.4097 59.8901 49.4811 59.761C49.4227 59.8246 48.9508 60.3525 48.4668 60.6766Z" fill="#FFDEAE"/>
<path d="M43.1831 59.4437C43.1839 59.4459 43.1833 59.4473 43.184 59.4496C43.2327 59.5848 43.8754 61.5353 43.6628 62.9648C43.4479 64.4461 44.582 66.4149 44.5807 66.4155C44.584 66.4165 45.8509 64.4749 45.6157 63.2974C45.3469 61.8798 43.2522 59.5156 43.1831 59.4437Z" fill="#C49047"/>
<path d="M43.1461 60.673C42.9361 61.6304 42.6524 62.4204 42.5407 63.5249C42.4765 64.1693 43.2814 65.6047 44.0129 66.1135C44.2752 66.3611 44.5802 66.4155 44.5802 66.4155C44.5815 66.4151 43.4475 64.446 43.6623 62.9648C43.8749 61.5352 43.2322 59.5847 43.1835 59.4496C43.19 59.5283 43.2552 60.1736 43.1461 60.673Z" fill="#FFDEAE"/>
<path d="M48.1207 64.6157C48.1193 64.6178 48.1177 64.6186 48.1162 64.6206C48.0347 64.7466 46.7914 66.5375 45.3956 67.4765C43.9582 68.4518 43.0177 70.5527 43.0144 70.5523C43.0146 70.5529 45.5924 69.8139 46.463 68.8164C47.5257 67.6196 48.1117 64.7074 48.1207 64.6157Z" fill="#C49047"/>
<path d="M47.0281 65.4971C46.0487 66.0829 45.164 66.507 44.1261 67.2646C43.5223 67.7067 42.8314 69.2251 42.8887 70.0116C42.8529 70.3423 43.0146 70.5523 43.0146 70.5523C43.0181 70.5527 43.9582 68.4518 45.3958 67.4765C46.7917 66.5375 48.035 64.7467 48.1164 64.6206C48.0532 64.6818 47.5387 65.191 47.0281 65.4971Z" fill="#FFDEAE"/>
<path d="M41.821 64.0876C41.8216 64.0898 41.8209 64.0912 41.8214 64.0935C41.86 64.2297 42.3553 66.1943 42.0321 67.6106C41.7034 69.0787 42.6871 71.0783 42.6858 71.0788C42.6891 71.0798 44.1087 69.1894 43.964 68.0089C43.8044 66.5878 41.885 64.1615 41.821 64.0876Z" fill="#C49047"/>
<path d="M41.6913 65.3107C41.4073 66.257 41.0624 67.0341 40.8658 68.1302C40.7519 68.7698 41.4481 70.227 42.1417 70.7586C42.3855 71.0144 42.6868 71.0788 42.6868 71.0788C42.6879 71.0783 41.7041 69.0788 42.0329 67.6106C42.3562 66.1943 41.8607 64.2297 41.8222 64.0936C41.8231 64.1721 41.8386 64.8169 41.6913 65.3107Z" fill="#FFDEAE"/>
<path d="M45.3724 69.9464C45.3705 69.9482 45.3684 69.9483 45.3664 69.9501C45.2421 70.0529 43.3956 71.5016 41.7244 72.1007C39.9999 72.7245 38.3364 74.5543 38.3328 74.5534C38.3328 74.5534 41.0441 74.4032 42.2407 73.6321C43.6928 72.7089 45.3307 70.032 45.3724 69.9464Z" fill="#C49047"/>
<path d="M44.006 70.5523C42.8578 70.8992 41.8607 71.1125 40.5968 71.6154C39.8609 71.909 38.6485 73.2268 38.4127 74.002C38.2566 74.3145 38.3323 74.5537 38.3323 74.5537C38.3357 74.5545 39.9993 72.7247 41.7239 72.1009C43.3954 71.5017 45.2414 70.0531 45.3659 69.9503C45.283 69.9951 44.6047 70.3708 44.006 70.5523Z" fill="#FFDEAE"/>
<path d="M40.9441 74.7381C40.9415 74.7396 40.9398 74.7394 40.9372 74.7408C40.7901 74.8247 38.6306 75.9973 36.8537 76.3595C35.0183 76.7377 32.952 78.3209 32.949 78.3198C32.949 78.3198 35.6265 78.5407 36.9825 77.9435C38.6246 77.2297 40.8821 74.8161 40.9441 74.7381Z" fill="#C49047"/>
<path d="M39.4609 75.1458C38.2542 75.329 37.2282 75.4017 35.8721 75.7248C35.0821 75.9135 33.5799 77.0501 33.1619 77.785C32.9336 78.0728 32.9492 78.3198 32.9492 78.3198C32.9521 78.3207 35.0186 76.7376 36.854 76.3594C38.6309 75.9971 40.7904 74.8245 40.9375 74.7407C40.8453 74.7735 40.0902 75.0496 39.4609 75.1458Z" fill="#FFDEAE"/>
<path d="M39.5659 68.0363C39.5659 68.0386 39.5644 68.0398 39.5642 68.0421C39.5523 68.1821 39.3097 70.1883 38.4841 71.4883C37.6369 72.8366 37.8313 74.9916 37.8288 74.9917C37.8305 74.9928 39.8732 73.4719 40.171 72.2989C40.5455 70.889 39.6022 68.1216 39.5659 68.0363Z" fill="#C49047"/>
<path d="M38.9978 69.1888C38.3837 70.0408 37.7735 70.7166 37.1872 71.7352C36.8466 72.3296 36.9726 73.8947 37.4317 74.5621C37.5678 74.8634 37.8288 74.9919 37.8288 74.9919C37.8312 74.9917 37.6368 72.8367 38.484 71.4885C39.3097 70.1884 39.5521 68.1821 39.5641 68.0422C39.5367 68.1182 39.3176 68.7443 38.9978 69.1888Z" fill="#FFDEAE"/>
<path d="M35.9908 72.4814C35.9903 72.4833 35.9884 72.4841 35.9881 72.4862C35.9469 72.6053 35.2982 74.3067 34.3095 75.3285C33.2921 76.3891 32.9888 78.281 32.9863 78.2807C32.9872 78.2814 35.058 77.2164 35.5705 76.2398C36.1996 75.0668 36.0036 72.5596 35.9908 72.4814Z" fill="#C49047"/>
<path d="M35.2516 73.4052C34.5401 74.0641 33.8711 74.5722 33.1492 75.3809C32.7291 75.8528 32.4962 77.2242 32.7417 77.8594C32.792 78.1373 32.9861 78.2808 32.9861 78.2808C32.9884 78.281 33.2918 76.389 34.3092 75.3286C35.2977 74.3067 35.9466 72.6054 35.9877 72.4863C35.9475 72.5484 35.6223 73.0612 35.2516 73.4052Z" fill="#FFDEAE"/>
<path d="M19.7178 68.0766V62.2168H24.1023V53.4573H19.7178V47.8347H20.8325C21.4525 47.8347 22.0529 47.7978 22.6168 47.725C23.1107 47.6615 23.5139 47.5565 23.8156 47.4126C24.1073 47.2724 24.3217 47.1006 24.45 46.9034C24.5856 46.6946 24.6669 46.4043 24.6912 46.0404L24.7606 45.0001H31.54V62.2168H35.8267V68.0766H19.7178Z" fill="#C49047"/>
<path d="M34.7134 66.9616H20.834V63.3312H25.2185V52.3422H20.834V48.9492C21.5042 48.9492 22.1465 48.9097 22.7609 48.8304C23.3752 48.7515 23.8871 48.614 24.2969 48.4185C24.7807 48.186 25.1438 47.8833 25.3859 47.5109C25.6279 47.1387 25.7675 46.6731 25.8049 46.1146H30.4267V63.3312H34.7134V66.9616Z" fill="#FFDEAE"/>
<path d="M32.0183 78.8171C32.0183 79.8734 30.0205 80.7296 27.556 80.7296C25.0916 80.7296 23.0938 79.8734 23.0938 78.8171C23.0938 77.7609 25.0916 76.9046 27.556 76.9046C30.0205 76.9047 32.0183 77.7609 32.0183 78.8171Z" fill="#C49047"/>
<path d="M27.5565 80.395C25.1239 80.395 23.4287 79.5634 23.4287 78.8169C23.4287 78.0706 25.1239 77.2388 27.5565 77.2388C29.9892 77.2388 31.6845 78.0706 31.6845 78.8169C31.6845 79.5634 29.9892 80.395 27.5565 80.395Z" fill="#FFDEAE"/>
</svg>
